<?xml version="1.0" encoding="utf-8"?>
<!-- Generator: Adobe Illustrator 19.2.1, SVG Export Plug-In . SVG Version: 6.00 Build 0)  -->
<svg version="1.1" id="Capa_1" xmlns="http://www.w3.org/2000/svg" xmlns:xlink="http://www.w3.org/1999/xlink" x="0px" y="0px"
	 viewBox="0 0 595.3 558.5" style="enable-background:new 0 0 595.3 558.5;" xml:space="preserve">
<style type="text/css">
	.st0{fill:#01AB90;}
	.st1{fill:#FFFFFF;stroke:#01AB90;stroke-width:18;stroke-linecap:round;stroke-miterlimit:10;}
</style>
<g>
	<path class="st0" d="M248.2,440h-21.4c-15.3,0-27.8-12.5-27.8-27.8V144.8c0-15.3,12.5-27.8,27.8-27.8h21.4
		c15.3,0,27.8,12.5,27.8,27.8v267.4C276,427.5,263.5,440,248.2,440z M226.8,135c-5.4,0-9.8,4.4-9.8,9.8v267.4c0,5.4,4.4,9.8,9.8,9.8
		h21.4c5.4,0,9.8-4.4,9.8-9.8V144.8c0-5.4-4.4-9.8-9.8-9.8H226.8z"/>
	<path class="st0" d="M388,440c-5,0-9-4-9-9V144.8c0-5.4-4.4-9.8-9.8-9.8h-21.4c-5.4,0-9.8,4.4-9.8,9.8V431c0,5-4,9-9,9s-9-4-9-9
		V144.8c0-15.3,12.5-27.8,27.8-27.8h21.4c15.3,0,27.8,12.5,27.8,27.8V431C397,436,393,440,388,440z"/>
	<path class="st0" d="M490.2,440h-21.4c-15.3,0-27.8-12.5-27.8-27.8V144.8c0-15.3,12.5-27.8,27.8-27.8h21.4
		c15.3,0,27.8,12.5,27.8,27.8v267.4C518,427.5,505.5,440,490.2,440z M468.8,135c-5.4,0-9.8,4.4-9.8,9.8v267.4c0,5.4,4.4,9.8,9.8,9.8
		h21.4c5.4,0,9.8-4.4,9.8-9.8V144.8c0-5.4-4.4-9.8-9.8-9.8H468.8z"/>
	<g>
		<path class="st0" d="M127.2,440h-21.4C90.5,440,78,427.5,78,412.2V144.8c0-15.3,12.5-27.8,27.8-27.8h21.4
			c15.3,0,27.8,12.5,27.8,27.8V256c0,5-4,9-9,9s-9-4-9-9V144.8c0-5.4-4.4-9.8-9.8-9.8h-21.4c-5.4,0-9.8,4.4-9.8,9.8v267.4
			c0,5.4,4.4,9.8,9.8,9.8h21.4c5.4,0,9.8-4.4,9.8-9.8V360c0-5,4-9,9-9s9,4,9,9v52.2C155,427.5,142.5,440,127.2,440z"/>
		<path class="st1" d="M146,360"/>
		<path class="st1" d="M146,256"/>
	</g>
</g>
</svg>
